<svg xmlns="http://www.w3.org/2000/svg" width="744.1" height="1052.4">
  <path d="M25 336c15-10 31-19 47-27l11-6 7-4 3-1-33 19 7-4 40-23a528 528 0 0 1-18 10l40-23 26-11c7-4 15-4 23-7 6-3 12-6 19-7 7 0 15-3 21-5 7-3 14-3 20-6l22-5c8-2 17-5 26-6l25-3c6-1 11 0 17-2l7-2 23-4 25-2 26-7c9 0 15-3 23-6s16-3 24-4l24-6c8-2 15-2 23-2l25-1h133l24 3c7 2 14 6 20 11l21 18c7 7 12 16 18 24l3 4-37 21-2-4c-6-8-11-16-18-22s-13-13-21-18c-6-5-12-8-19-10-8-2-15-2-23-2H494a616 616 0 0 0-47 4l-25 5c-8 1-16 2-23 5l-23 6-27 6-25 2-22 5c-8 2-16 2-25 3l-25 3c-9 2-17 5-26 6l-21 6c-7 2-14 3-20 6l-21 5c-7 1-13 4-20 7-7 2-15 3-22 7l-25 11 31-18-5 2-40 24-5 3-4 2 32-19-39 23 32-19c-16 10-32 20-49 28l-3 2-4 2c-21 11 45-27 25-14l-3 1-40 16zM13 648c4-9 7-18 9-28 1-9 1-17 4-26l5-20c1-7 5-13 8-20l14-23 17-23c14-17 32-24 53-35 6-4 12-6 19-8 3-2 6-1 9-2l10-3 23-5 23-1h77a2722 2722 0 0 1 68 0c7 0 13-3 19-4l22-2 21-3c7-2 14-4 21-4 8-2 17-3 25-3s16-2 24-4l23-4 17-2 7-2 11-3-33 26-11 3c-8 2-16 2-25 3l-23 4c-8 2-16 4-24 3l-25 4-21 5-21 2-21 3c-7 1-13 4-20 3a4120 4120 0 0 0-68 0h-77l-23 1-23 6-19 5-18 8 33-19-4 2c-4 2-7 6-11 10l-17 22a495 495 0 0 0-22 42l-5 20-2 7c-2 6-1 13-3 19l-7 28-39 18zM74 728l26-2h149a222 222 0 0 0 40 3h24c7 0 14 0 20-2 5 0 8-2 12-4 14-5-8 4 6-2 8-1 15-4 22-8l21-8c8-2 14-7 21-10l4-1 7-4-26 15c6-6 13-11 20-15l50-29-33 19 3-2 3-2 39-22c4-3 9-4 13-6-111 64 87-50-23 13l40-15-40 23c-33 19 121-70-10 5l-10 4-3 2 30-17c-15 10-6 4-42 24a1975 1975 0 0 1 30-17l-7 5c-8 4-15 8-21 15-18 13-37 24-57 31-7 4-14 8-22 9l-20 10-22 7-18 6h-66l-19-3h-72a5110 5110 0 0 0-103 3l34-25z" style="fill:#000"/>
  <path d="M212 469c-5 7-7 16-10 24-1 8-3 15-6 22l-6 20c-4 8-9 16-11 24-3 8-3 16-3 24-1 9 0 14 4 22l11 22c2 7 2 15 2 22 0 8-1 15 3 23 4 6 10 10 15 16 6 6 12 11 20 16 8 3 16 4 25 5l21-6-26 15 3-2 6-4c21-13 84-47 11-6l2-2 2-2c4-5 7-11 9-17 2-7 6-13 11-18l18-21c6-5 11-12 15-18 5-6 8-13 9-21a135 135 0 0 0-1-42l-11-20-11-21-10-18c-4-5-9-8-16-9l-21-6-17-4 35-24 17 4c6 3 13 5 21 6 7 2 13 6 17 12l10 18 12 22 11 20c2 7 3 15 3 22l-1 22c-1 8-3 15-8 22s-9 14-15 19c-7 6-13 13-18 20-5 5-9 11-11 17-3 6-5 13-9 18-11 17-11 10-42 28l-3 1 33-19-3 2-55 32a61 61 0 0 1-49-2l-20-17c-6-6-12-11-16-18l-3-7v-17c0-7 0-14-2-21-2-8-7-14-11-22s-6-13-5-23l3-25c2-8 6-16 11-24l6-20c2-8 5-14 6-22 3-8 5-17 10-25l38-17z" style="fill:#000"/>
  <path d="M226 714a24 37 0 1 1 9-5" style="fill:#000"/>
  <path d="M263 657a50 51 0 1 1 18-8M270 549a1 40 0 1 1 1-37l-1-2z" style="fill:#000"/>
  <path d="M294 566a33 31 0 1 1 26-29l-33-2z" style="fill:#000"/>
  <path d="M300 552a7 13 0 1 1 6-12h-7z" style="fill:#000"/>
  <path d="m63 739 14-11h123l-14-10c-7-6-17-16-21-22-8-10-9-15-9-30 0-14-2-22-9-37-8-17-8-22-7-36 1-9 4-22 7-27l16-45c11-33 11-34 23-39l12-6-26 2-45 6c-17 4-20 6-29 18-23 31-32 54-42 105l-5 20-19 10c-14 7-16 7-15 3 2-3 4-11 5-19 11-52 18-70 43-104 12-16 26-26 56-41 34-17 40-18 145-20a1093 1093 0 0 0 237-24l27-3c0 1-4 5-11 10-10 8-15 10-56 16a6163 6163 0 0 0-111 17c-22 3-23 4-16 11 3 3 12 20 21 37 16 29 16 31 16 52 0 27-3 35-27 62-11 12-22 28-26 36-7 14-19 29-24 29-2 0-14 6-27 14l-24 14 15 2c26 3 63 2 80-3 24-6 64-23 87-37 11-8 21-13 22-12s-8 8-19 16c-20 14-56 31-99 48l-19 8H48l15-10zm211-33 10-18c5-9 17-25 27-36 23-26 28-37 28-64 0-19-1-23-9-37-8-13-11-16-17-17-5 0-8 1-8 3l-4 2c-3 0-5 2-6 4s-1 0-1-3c-1-4-3-6-5-6-3 0-4 1-3 4l3 16c2 9 1 11-3 11-5 0-5 1 1 6l11 18c13 31-14 69-47 67-9-1-12 0-11 3 5 11 5 26 1 36l-5 12c0 3 32 3 38-1zm-63-58 7-7-5-8c-4-5-7-14-8-23-1-18 5-31 21-44 9-7 13-8 26-8 14 0 15-1 11-5-11-12-7-33 8-42 11-7 18-7 29-2l8 2c0-3-13-15-17-15l-20-5c-14-5-15-5-10-10s4-5-25-4l-30 1-8 26c-4 14-11 32-15 41a77 77 0 0 0-1 66c4 8 7 20 9 36 2 29 5 35 9 20 2-6 6-15 11-19z" style="fill:#369"/>
  <path d="M217 622c7 5 16 5 20 12 3 17 2 2-37 25l33-26c-35 21-45 13-32 22-1-2-17-8-19-10l35-23z" style="fill:#000"/>
  <path d="M220 613c7 4 14 10 19 16l16 21c5 8 13 12 21 16 7 4 11 10 13 18 1 6 1 12-1 18l-38 18c2-5 3-11 2-16-2-8-5-11-12-15-8-4-16-9-21-17-6-7-10-15-16-21-5-6-11-11-19-15l36-23z" style="fill:#000"/>
  <path d="M330 562v26l-2 22c0 7-3 14-6 21a242 242 0 0 1-13 41l-7 9-38 16 7-8c3-6 6-13 7-20 2-7 5-13 6-20 2-7 5-13 6-20l3-22v-25l37-20zM252 474c-6 8-13 16-18 25-6 7-11 14-15 22l-11 23-7 21c-2 7-2 15-2 22v29l-38 20v-30c0-8 0-15 2-23l7-22 11-22c4-9 9-16 14-24l18-24 39-17z" style="fill:#000"/>
  <path d="m244 492-4 2-8 4-4 3 28-16a205 205 0 0 0-39 30c-7 6-11 13-16 21l-11 21-5 11-38 19 4-13c4-7 7-15 12-22 4-7 8-15 15-21 6-6 11-12 18-17a459 459 0 0 1 81-49l-33 27zM278 512c-8 6-13 15-18 23a844 844 0 0 0-23 34l-39 17 8-11 15-24c6-7 11-16 18-23l39-16z" style="fill:#000"/>
  <path d="M227 512c-16 10 19-11 29-16l-4 3-17 11c-8 8-18 13-27 19-6 4-10 10-13 17l-2 9-38 18 2-10c2-7 6-13 12-19 9-7 20-11 28-18 20-15 40-29 63-40l-33 26z" style="fill:#000"/>
  <path d="m247 517-11 4c-1 1-5 3-3 3l28-16-21 14-17 17-15 19-6 7-39 17 7-8 14-18 6-7 11-11 21-15c18-12 37-25 58-32l-33 26z" style="fill:#000"/>
  <path d="m270 504-24 11c-17 5-52 27 12-10-17 12-34 25-54 32l-6 3 34-19-40 22-3 2 33-19-7 4-3 2-7 7-13 12-39 16 13-12 5-4 5-6c2-1 92-53 6-3l40-23 3-2-33 19 39-22 6-3c14-7 4-2-30 18l3-2 6-4 3-2c20-12 38-25 60-32l24-12-33 27zM65 744l25 12 8 4-35 23-8-4-25-11 35-24zM117 716c9 7 18 14 25 23l8 12-37 21-7-12c-7-8-15-15-24-20l35-24z" style="fill:#000"/>
  <path d="m165 718 27 6c7 2 14 5 21 10 6 4 10 11 12 18l1 3-36 21-2-4c-2-6-5-12-11-16s-13-6-20-8c-9-3-17-5-26-6l34-24z" style="fill:#000"/>
  <path d="m257 728 27 18c8 4 16 9 23 15l-35 22-23-15-28-17 36-23z" style="fill:#000"/>
  <path d="M340 740c8 6 17 10 26 15l5 3-35 23-5-3-27-16 36-22z" style="fill:#000"/>
  <path d="m374 732 13 11-35 22-14-11 36-22zM420 704c7 4 15 5 23 7l17 1-35 24-17-1-24-7 36-24z" style="fill:#000"/>
  <path d="M399 708c1 9 2 14 9 20l10 7-35 23-11-7c-7-7-9-14-10-23l37-20zM442 686c9 0 18 4 27 6l16 3-35 24-16-3c-9-2-17-6-26-5l34-25zM29 633c-8-2-14-6-19-12s-5-13-6-20 1-12 5-18l9-16 5-22 1-22v-8l38-19v8l-1 22-5 23-8 17c-4 5-7 9-6 16 0 6 0 12 4 17 5 5 11 8 18 9l-35 25zM56 494l7-26a248 248 0 0 1 16-36l38-18c-1 5-3 10-6 14l-10 23-7 25-38 18z" style="fill:#000"/>
  <path d="m93 462 3 25 2 11-37 20-3-12-2-24 37-20z" style="fill:#000"/>
  <path d="M122 456c6 0 11-2 16-4l4-2-33 18c7-4 8-11 10-19 1-7 5-14 10-20 5-5 7-11 11-16 2-5 6-9 9-12l39-17-10 12-10 17c-5 5-9 11-11 18-2 8-3 16-9 22-20 12-36 26-60 29l34-26zM162 470l10-24c4-9 9-18 15-26 4-8 11-13 17-17 10 1 31-20 46-26l9-3c4-3 9-5 14-6l-33 26-14 6c-16 5-45 22 18-13-7 4-14 9-19 16-6 8-10 17-15 26l-10 24-38 17zM225 473c4-8 10-16 16-24l17-19 14-16 17-16c13-14 30-20 48-31l-33 19 39-15c-88 51-20 12-6 4l-4 2-5 5a757 757 0 0 1-31 31l-18 20-16 23-38 17zM288 450a586 586 0 0 1 39-43l14-15 16-16 17-10 39-15-16 10c-7 4-12 9-17 15l-14 15-18 19-21 24-39 16zM336 459c5-8 8-18 12-26 3-7 7-14 13-20l16-18c14-14 29-20 48-30l7-2 17-4-34 26-17 4c-14 5-29 16 27-17l-3 2-3 2-3 3-17 17c-5 6-10 12-13 20l-11 25-39 18zM385 459c8-5 15-11 21-17l12-21 12-20a114 114 0 0 1 24-23l39-16-8 7a102 102 0 0 0-28 35l-13 21c-5 7-12 13-19 18l-40 16zM461 442c0-9 1-18 5-27 2-4 6-8 10-10 38-23 26-17 43-24l22-10c-63 37-32 19-18 10l39-15c-17 12-37 20-54 32l-22 9c-14 7-4 2 30-18l-3 2-6 5-3 2-2 3c-3 7-3 15-3 22l-38 19z" style="fill:#000"/>
  <path d="M285 467c7-4 12-10 17-16l9-15 39-17-9 15c-5 6-10 13-16 18l-40 15z" style="fill:#000"/>
</svg>
